<svg width="236" height="338" viewBox="0 0 236 338" fill="none" xmlns="http://www.w3.org/2000/svg">
<path fill-rule="evenodd" clip-rule="evenodd" d="M173.217 0C182.816 0 190.955 7.05858 192.313 16.5615L235.025 315.548C236.685 327.169 227.668 337.565 215.929 337.565H189.953C180.326 337.565 172.174 330.468 170.847 320.934L168.095 301.151C166.768 291.616 158.615 284.519 148.989 284.519H89.9829C80.3568 284.519 72.204 291.616 70.8775 301.151L68.125 320.934C66.7985 330.468 58.6458 337.565 49.0196 337.565H19.2931C7.55449 337.565 -1.46259 327.169 0.197493 315.548L42.9098 16.5615C44.2674 7.05859 52.406 0 62.0054 0H173.217ZM148.424 119.022H131.162V86.4317C131.162 82.6931 129.637 79.1077 126.923 76.4641C124.208 73.8206 120.527 72.3354 116.688 72.3354H90.5583C86.7197 72.3354 83.0382 73.8206 80.3239 76.4641C77.6095 79.1077 76.0846 82.6931 76.0846 86.4317V142.093C76.0826 145.752 77.5411 149.268 80.1519 151.898C82.7628 154.529 86.3214 156.068 90.0759 156.189L104.096 156.612V221.643C104.103 223.909 104.91 226.103 106.383 227.857C107.856 229.61 109.904 230.816 112.183 231.272C114.461 231.728 116.832 231.405 118.895 230.358C120.958 229.311 122.588 227.604 123.51 225.524L161.721 138.663C162.662 136.52 163.043 134.183 162.829 131.861C162.616 129.539 161.815 127.305 160.497 125.359C159.18 123.413 157.387 121.816 155.28 120.71C153.173 119.604 150.817 119.024 148.424 119.022Z" fill="#8AE500"/>
</svg>
